<svg width="39" height="42" viewBox="0 0 39 42" fill="none" xmlns="http://www.w3.org/2000/svg">
<path d="M13.7385 1.3814C9.94169 2.83719 6.66734 5.60032 4.39639 9.26494C2.12544 12.9296 0.977579 17.3025 1.12142 21.7414C1.26526 26.1804 2.69321 30.4514 5.19554 33.927C7.69786 37.4027 11.1427 39.8999 15.0239 41.0517C18.1706 41.9491 21.4674 41.9885 24.6308 41.1666C27.4966 40.4551 30.1461 38.9332 32.3199 36.75C34.5823 34.4083 36.2245 31.4294 37.0699 28.1334C37.9888 24.5492 38.1523 20.7799 37.5479 17.115H19.8779V25.2164H30.1111C29.9066 26.5085 29.4683 27.7418 28.8225 28.8423C28.1768 29.9428 27.3367 30.8881 26.3527 31.6214C25.1031 32.535 23.6945 33.1497 22.2172 33.4261C20.7357 33.7306 19.216 33.7306 17.7344 33.4261C16.2328 33.0829 14.8123 32.3979 13.5633 31.4147C11.5569 29.8449 10.0503 27.6147 9.25864 25.0425C8.45355 22.4221 8.45355 19.5812 9.25864 16.9608C9.82218 15.124 10.7538 13.4516 11.9839 12.0684C13.3917 10.4565 15.174 9.3043 17.1352 8.73821C19.0964 8.17213 21.1608 8.21405 23.1019 8.85937C24.6183 9.37384 26.0049 10.2727 27.1513 11.4844C28.3051 10.2156 29.457 8.94359 30.6069 7.66828C31.2007 6.98249 31.8479 6.32953 32.4327 5.62734C30.6828 3.82749 28.6288 2.42699 26.3883 1.50609C22.3084 -0.13129 17.8442 -0.175293 13.7385 1.3814Z" fill="white"/>
<path d="M13.7386 1.38141C17.844 -0.176343 22.3082 -0.133498 26.3884 1.50281C28.6293 2.42998 30.6824 3.83722 32.4298 5.64375C31.8361 6.34594 31.2097 7.00219 30.6041 7.68469C29.4522 8.95563 28.3013 10.2222 27.1514 11.4844C26.005 10.2727 24.6184 9.37385 23.102 8.85938C21.1616 8.21179 19.0972 8.16745 17.1355 8.73122C15.1737 9.29499 13.3904 10.4451 11.9811 12.0553C10.7509 13.4385 9.81933 15.1109 9.25578 16.9477L3.10156 11.6813C5.3044 6.85309 9.11847 3.15992 13.7386 1.38141Z" fill="#E33629"/>
<path d="M1.46968 16.8984C1.80046 15.0865 2.34963 13.3318 3.10249 11.6812L9.25671 16.9608C8.45163 19.5812 8.45163 22.4221 9.25671 25.0425C7.20629 26.7925 5.15489 28.5512 3.10249 30.3187C1.21778 26.1723 0.642979 21.4479 1.46968 16.8984Z" fill="#F8BD00"/>
<path d="M19.8763 17.1117H37.5463C38.1507 20.7767 37.9872 24.546 37.0684 28.1302C36.223 31.4261 34.5808 34.405 32.3184 36.7467C30.3323 35.0339 28.3373 33.3342 26.3512 31.6214C27.3358 30.8873 28.1763 29.9411 28.8221 28.8393C29.4679 27.7376 29.9058 26.5031 30.1096 25.2099H19.8763C19.8734 22.5127 19.8763 19.8122 19.8763 17.1117Z" fill="#587DBD"/>
<path d="M3.09766 30.3187C5.15005 28.5687 7.20146 26.81 9.25187 25.0425C10.0451 27.6156 11.5539 29.8459 13.5625 31.4147C14.8153 32.3934 16.2389 33.0728 17.7425 33.4097C19.2241 33.7142 20.7437 33.7142 22.2253 33.4097C23.7025 33.1333 25.1112 32.5186 26.3608 31.605C28.3469 33.3178 30.3419 35.0175 32.328 36.7303C30.1545 38.9147 27.505 40.4377 24.6389 41.1502C21.4754 41.9721 18.1787 41.9327 15.032 41.0353C12.5433 40.3009 10.2187 39.0062 8.20391 37.2323C6.07134 35.361 4.32955 33.0027 3.09766 30.3187Z" fill="#319F43"/>
</svg>
