<svg width="41" height="40" viewBox="0 0 41 40" fill="none" xmlns="http://www.w3.org/2000/svg">
<g clip-path="url(#clip0_3495_722)">
<path d="M28.1875 2.5C28.8671 2.5 29.5189 2.76339 29.9995 3.23223C30.48 3.70107 30.75 4.33696 30.75 5V35C30.75 35.663 30.48 36.2989 29.9995 36.7678C29.5189 37.2366 28.8671 37.5 28.1875 37.5H12.8125C12.1329 37.5 11.4811 37.2366 11.0005 36.7678C10.52 36.2989 10.25 35.663 10.25 35V5C10.25 4.33696 10.52 3.70107 11.0005 3.23223C11.4811 2.76339 12.1329 2.5 12.8125 2.5H28.1875ZM12.8125 0C11.4533 0 10.1497 0.526784 9.18858 1.46447C8.22745 2.40215 7.6875 3.67392 7.6875 5V35C7.6875 36.3261 8.22745 37.5979 9.18858 38.5355C10.1497 39.4732 11.4533 40 12.8125 40H28.1875C29.5467 40 30.8503 39.4732 31.8114 38.5355C32.7725 37.5979 33.3125 36.3261 33.3125 35V5C33.3125 3.67392 32.7725 2.40215 31.8114 1.46447C30.8503 0.526784 29.5467 0 28.1875 0L12.8125 0Z" fill="black"/>
<path d="M20.5 35C21.1796 35 21.8314 34.7366 22.312 34.2678C22.7925 33.7989 23.0625 33.163 23.0625 32.5C23.0625 31.837 22.7925 31.2011 22.312 30.7322C21.8314 30.2634 21.1796 30 20.5 30C19.8204 30 19.1686 30.2634 18.688 30.7322C18.2075 31.2011 17.9375 31.837 17.9375 32.5C17.9375 33.163 18.2075 33.7989 18.688 34.2678C19.1686 34.7366 19.8204 35 20.5 35Z" fill="black"/>
</g>
<defs>
<clipPath id="clip0_3495_722">
<rect width="41" height="40" fill="white"/>
</clipPath>
</defs>
</svg>
