<svg width="21" height="21" viewBox="0 0 21 21" fill="none" xmlns="http://www.w3.org/2000/svg">
<path d="M18.8393 7.81708L4.83927 0.817077C4.28676 0.542086 3.66289 0.444187 3.05271 0.536728C2.44252 0.629269 1.87573 0.907747 1.4296 1.33419C0.983474 1.76064 0.679724 2.3143 0.559764 2.91969C0.439804 3.52508 0.509472 4.15273 0.759271 4.71708L3.15927 10.0871C3.21373 10.2169 3.24177 10.3563 3.24177 10.4971C3.24177 10.6379 3.21373 10.7772 3.15927 10.9071L0.759271 16.2771C0.555971 16.7338 0.470027 17.2341 0.509248 17.7324C0.548469 18.2308 0.711613 18.7115 0.983853 19.1308C1.25609 19.5501 1.6288 19.8947 2.06809 20.1333C2.50739 20.3719 2.99935 20.497 3.49927 20.4971C3.9675 20.4924 4.42876 20.3831 4.84927 20.1771L18.8493 13.1771C19.3459 12.9273 19.7633 12.5444 20.055 12.0712C20.3466 11.5979 20.5011 11.053 20.5011 10.4971C20.5011 9.94118 20.3466 9.39622 20.055 8.923C19.7633 8.44977 19.3459 8.06689 18.8493 7.81708H18.8393ZM17.9493 11.3871L3.94927 18.3871C3.76543 18.4753 3.559 18.5053 3.35766 18.4729C3.15631 18.4405 2.96968 18.3474 2.82278 18.2059C2.67589 18.0645 2.57575 17.8815 2.5358 17.6815C2.49585 17.4815 2.518 17.2741 2.59927 17.0871L4.98927 11.7171C5.02021 11.6454 5.04692 11.5719 5.06927 11.4971H11.9593C12.2245 11.4971 12.4788 11.3917 12.6664 11.2042C12.8539 11.0166 12.9593 10.7623 12.9593 10.4971C12.9593 10.2319 12.8539 9.97751 12.6664 9.78997C12.4788 9.60243 12.2245 9.49708 11.9593 9.49708H5.06927C5.04692 9.42225 5.02021 9.34879 4.98927 9.27708L2.59927 3.90708C2.518 3.72004 2.49585 3.51263 2.5358 3.31265C2.57575 3.11267 2.67589 2.92968 2.82278 2.78822C2.96968 2.64677 3.15631 2.55361 3.35766 2.52123C3.559 2.48885 3.76543 2.51881 3.94927 2.60708L17.9493 9.60708C18.1131 9.69099 18.2505 9.81849 18.3465 9.97552C18.4425 10.1326 18.4933 10.313 18.4933 10.4971C18.4933 10.6811 18.4425 10.8616 18.3465 11.0186C18.2505 11.1757 18.1131 11.3032 17.9493 11.3871Z" fill="black"/>
</svg>
